<svg width="346" height="197" viewBox="0 0 346 197" fill="none" xmlns="http://www.w3.org/2000/svg">
<mask id="mask0_244_3679" style="mask-type:luminance" maskUnits="userSpaceOnUse" x="0" y="0" width="346" height="198">
<path d="M345 0H1C0.447715 0 0 0.44772 0 1.00001V196.995C0 197.547 0.447714 197.995 0.999999 197.995H345C345.552 197.995 346 197.547 346 196.995V1C346 0.447715 345.552 0 345 0Z" fill="white"/>
</mask>
<g mask="url(#mask0_244_3679)">
<path d="M369.918 0.308685H0.806946C0.254661 0.308685 -0.193054 0.756401 -0.193054 1.30869V200.368C-0.193054 200.921 0.25466 201.368 0.806945 201.368H369.918C370.47 201.368 370.918 200.921 370.918 200.368V1.30869C370.918 0.756401 370.47 0.308685 369.918 0.308685Z" fill="#252833"/>
<path opacity="0.8" d="M108.512 47.5386C137.305 47.6214 162.257 53.9215 188.324 61.1404C195.317 63.0769 202.88 64.7827 210.451 66.491C210.917 66.5959 211.383 66.7013 211.849 66.8062C219.895 68.6227 227.915 70.4586 235.293 72.5991C250.054 76.8818 262.124 82.3509 266.639 91.2316C271.17 100.143 265.224 108.225 256.329 116.297C253.322 119.026 249.999 121.736 246.645 124.472C245.034 125.785 243.416 127.105 241.822 128.435C236.923 132.525 232.275 136.701 228.885 141.047C224.695 146.42 221.774 152.252 219.186 158.137C218.335 160.074 217.521 162.015 216.71 163.947C215.052 167.898 213.409 171.816 211.491 175.597C205.786 186.848 197.731 196.728 180.029 202.264C160.233 208.453 135.926 211.611 112.479 210.995C89.0332 210.379 66.5006 205.992 50.1996 197.129C34.6538 188.676 34.6766 176.954 37.3099 164.185C37.7917 161.848 38.3617 159.474 38.9359 157.082C39.9237 152.966 40.9244 148.797 41.5117 144.677C42.4422 138.147 42.3484 131.676 39.5293 125.59C36.7038 119.488 30.725 113.727 23.7025 108.185C19.4669 104.842 14.8168 101.554 10.2366 98.3151C7.24238 96.1974 4.27804 94.1015 1.47901 92.0248C-12.7798 81.4469 -22.8689 71.2997 -13.1976 60.3912C-3.61395 49.5822 15.853 46.2993 38.5428 45.7707C49.8751 45.5068 61.9528 45.9315 73.9152 46.4319C75.5718 46.5012 77.2264 46.572 78.8765 46.6425C89.1278 47.0809 99.2045 47.5119 108.512 47.5386Z" stroke="url(#paint0_linear_244_3679)" stroke-width="2"/>
<path opacity="0.8" d="M202.205 -75.7453C216.015 -74.9709 229.977 -75.81 243.65 -76.6323C248.465 -76.9218 253.244 -77.2094 257.968 -77.4236C276.166 -78.2478 293.627 -77.9949 309.653 -72.7304C330.652 -65.8325 352.793 -57.3786 369.733 -47.2016C386.669 -37.0259 398.36 -25.1556 398.572 -11.4156C398.785 2.35795 387.796 14.7178 371.35 25.2649C354.904 35.8125 333.036 44.5232 311.594 50.9847C294.994 55.9878 277.243 54.5149 258.768 52.0709C255.909 51.6929 253.032 51.2912 250.14 50.8876C234.418 48.6925 218.261 46.4366 202.189 47.5662C189.607 48.4508 176.905 51.3913 164.371 54.9881C158.1 56.7873 151.859 58.7547 145.688 60.7153C145.067 60.913 144.446 61.1102 143.826 61.3074C138.287 63.0694 132.808 64.8119 127.403 66.4144C115.375 69.9803 103.787 72.8289 92.8599 73.6328C81.9674 74.4337 71.7372 73.204 62.3588 68.6027C53.2043 64.111 49.7159 58.6696 49.6543 52.5707C49.5924 46.4498 52.9833 39.6684 57.6227 32.5353C59.8973 29.0383 62.4649 25.4666 65.062 21.8539L65.2095 21.6487C67.8553 17.9683 70.526 14.2466 72.9327 10.5314C77.7436 3.10477 81.5208 -4.32632 81.9412 -11.4062C82.3317 -17.9808 79.7885 -24.8598 76.304 -31.7365C74.5611 -35.1763 72.5789 -38.6223 70.6049 -42.0331C70.4973 -42.2191 70.3898 -42.4049 70.2822 -42.5907C68.4162 -45.8139 66.5698 -49.0034 64.945 -52.1348C58.0539 -65.4149 55.2712 -77.4381 71.6042 -86.1724C88.0593 -94.9724 109.075 -93.1075 131.95 -88.6072C138.588 -87.3016 145.324 -85.7866 152.126 -84.2567C157.057 -83.1478 162.024 -82.0307 167.014 -80.9798C178.84 -78.4885 190.71 -76.3896 202.205 -75.7453Z" stroke="url(#paint1_linear_244_3679)" stroke-width="2"/>
<path opacity="0.8" d="M319.203 16.5011C353.445 18.6276 384.813 28.5871 406.166 44.0542C411.441 47.8759 414.136 51.2016 415.228 54.3363C416.32 57.4725 415.818 60.4482 414.618 63.5859C413.935 65.3696 413.021 67.2118 412.052 69.1632C409.627 74.0468 406.862 79.6159 406.544 86.669C406.295 92.1955 407.92 98.8396 409.956 105.837C410.469 107.6 411.009 109.387 411.552 111.185C413.167 116.532 414.812 121.98 415.889 127.234C417.329 134.256 417.744 140.887 415.735 146.417C413.731 151.936 409.327 156.322 401.16 158.922C384.778 164.138 367.964 160.717 350.291 155.523C346.66 154.456 342.98 153.311 339.267 152.154C334.006 150.516 328.678 148.857 323.327 147.371C314.162 144.827 304.787 142.748 295.199 142.055C285.949 141.386 276.014 142.219 266.021 143.56C261.02 144.231 255.993 145.031 251.018 145.838C250.311 145.953 249.606 146.068 248.901 146.182C244.644 146.875 240.436 147.559 236.312 148.161C226.689 149.567 217.609 150.511 209.599 150.063C201.627 149.618 194.724 147.795 189.395 143.648C184 139.45 182.904 135.062 184.407 130.49C185.917 125.9 190.045 121.128 195.111 116.196C197.375 113.992 199.817 111.765 202.288 109.512C202.58 109.246 202.871 108.98 203.163 108.714C205.927 106.19 208.703 103.637 211.264 101.062C216.384 95.9156 220.677 90.6598 222.334 85.3498C223.756 80.7886 223.313 76.0799 222.183 71.3776C221.479 68.4468 220.5 65.4948 219.533 62.5804C218.953 60.8325 218.377 59.0981 217.868 57.3894C215.136 48.2189 214.272 39.6728 224.126 32.6896C245.638 17.4445 284.873 14.3693 319.203 16.5011Z" stroke="url(#paint2_linear_244_3679)" stroke-width="2"/>
<path opacity="0.8" d="M85.9297 150.054C120.173 152.181 151.54 162.14 172.893 177.608C178.169 181.429 180.863 184.755 181.955 187.89C183.047 191.026 182.545 194.002 181.345 197.139C180.662 198.923 179.748 200.765 178.779 202.716C176.354 207.6 173.589 213.169 173.271 220.223C173.022 225.749 174.647 232.393 176.684 239.39C177.196 241.154 177.736 242.941 178.279 244.738C179.894 250.086 181.539 255.534 182.616 260.788C184.057 267.809 184.471 274.441 182.463 279.97C180.458 285.489 176.054 289.875 167.887 292.476C151.505 297.692 134.692 294.27 117.018 289.077C113.388 288.01 109.707 286.864 105.994 285.708C100.733 284.069 95.405 282.41 90.0536 280.925C80.8893 278.381 71.5136 276.301 61.9263 275.608C52.6761 274.939 42.7417 275.772 32.7481 277.114C27.7477 277.784 22.7194 278.585 17.7451 279.392C17.0382 279.506 16.3324 279.621 15.628 279.736C11.3712 280.428 7.1629 281.113 3.039 281.715C-6.58367 283.12 -15.6641 284.064 -23.6731 283.617C-31.6458 283.172 -38.5493 281.349 -43.878 277.202C-49.273 273.004 -50.3682 268.616 -48.8654 264.044C-47.3564 259.453 -43.2277 254.681 -38.1614 249.749C-35.8976 247.546 -33.4551 245.318 -30.9847 243.065C-30.6934 242.799 -30.4017 242.534 -30.11 242.267C-27.3456 239.744 -24.5701 237.19 -22.0084 234.615C-16.8885 229.469 -12.5957 224.213 -10.9395 218.903C-9.5168 214.342 -9.95884 209.633 -11.0893 204.931C-11.7938 202 -12.7732 199.048 -13.7403 196.134C-14.3202 194.386 -14.8956 192.652 -15.4047 190.943C-18.1375 181.772 -19.0002 173.226 -9.1463 166.243C12.3655 150.998 51.6003 147.923 85.9297 150.054Z" stroke="url(#paint3_linear_244_3679)" stroke-width="2"/>
</g>
<defs>
<linearGradient id="paint0_linear_244_3679" x1="-20.7938" y1="52.7522" x2="228.289" y2="-42.4671" gradientUnits="userSpaceOnUse">
<stop stop-color="#6EB9FC"/>
<stop offset="0.479167" stop-color="#F888D2"/>
<stop offset="1" stop-color="#FD957D"/>
</linearGradient>
<linearGradient id="paint1_linear_244_3679" x1="56.2636" y1="-92.7532" x2="418.615" y2="-54.8627" gradientUnits="userSpaceOnUse">
<stop stop-color="#6EB9FC"/>
<stop offset="0.479167" stop-color="#F888D2"/>
<stop offset="1" stop-color="#FD957D"/>
</linearGradient>
<linearGradient id="paint2_linear_244_3679" x1="211.695" y1="9.39215" x2="442.367" y2="72.9792" gradientUnits="userSpaceOnUse">
<stop stop-color="#6EB9FC"/>
<stop offset="0.479167" stop-color="#F888D2"/>
<stop offset="1" stop-color="#FD957D"/>
</linearGradient>
<linearGradient id="paint3_linear_244_3679" x1="-21.5776" y1="142.946" x2="209.094" y2="206.532" gradientUnits="userSpaceOnUse">
<stop stop-color="#6EB9FC"/>
<stop offset="0.479167" stop-color="#F888D2"/>
<stop offset="1" stop-color="#FD957D"/>
</linearGradient>
</defs>
</svg>
