<svg width="1512" height="982" viewBox="0 0 1512 982" fill="none" xmlns="http://www.w3.org/2000/svg">
<mask id="mask0_317_387" style="mask-type:alpha" maskUnits="userSpaceOnUse" x="0" y="0" width="1512" height="982">
<rect width="1512" height="982" fill="#1F2028" fill-opacity="0.79"/>
</mask>
<g mask="url(#mask0_317_387)">
<mask id="mask1_317_387" style="mask-type:luminance" maskUnits="userSpaceOnUse" x="0" y="-474" width="1514" height="1456">
<path d="M1513.52 -474H0V982H1513.52V-474Z" fill="white"/>
</mask>
<g mask="url(#mask1_317_387)">
<path d="M1622.52 -471.73H-0.844635V1006.81H1622.52V-471.73Z" fill="#252833"/>
<path opacity="0.8" d="M474.666 -124.413C600.617 -123.805 709.764 -77.4753 823.791 -24.3897C854.379 -10.1497 887.461 2.39476 920.581 14.957C922.62 15.7284 924.656 16.5033 926.696 17.2747C961.892 30.6331 996.973 44.1338 1029.25 59.8739C1093.82 91.3684 1146.62 131.586 1166.37 196.893C1186.19 262.423 1160.18 321.854 1121.27 381.217C1108.11 401.283 1093.58 421.214 1078.91 441.33C1071.86 450.992 1064.78 460.696 1057.81 470.478C1036.38 500.555 1016.05 531.26 1001.22 563.224C982.891 602.73 970.11 645.618 958.792 688.899C955.067 703.143 951.509 717.411 947.961 731.62C940.708 760.679 933.521 789.486 925.133 817.291C900.176 900.03 864.94 972.684 787.505 1013.39C700.914 1058.91 594.587 1082.13 492.022 1077.6C389.46 1073.07 290.896 1040.81 219.59 975.63C151.587 913.473 151.687 827.272 163.206 733.368C165.314 716.189 167.807 698.728 170.319 681.136C174.639 650.871 179.017 620.216 181.586 589.912C185.656 541.896 185.246 494.313 172.914 449.552C160.555 404.685 134.401 362.32 103.683 321.562C85.1548 296.982 64.8136 272.799 44.7783 248.983C31.6806 233.41 18.7137 217.997 6.46979 202.726C-55.9027 124.939 -100.036 50.319 -57.7303 -29.8995C-15.8085 -109.386 69.3464 -133.527 168.599 -137.414C218.17 -139.355 271.002 -136.232 323.329 -132.552C330.576 -132.043 337.814 -131.522 345.032 -131.003C389.874 -127.779 433.953 -124.61 474.666 -124.413Z" stroke="url(#paint0_linear_317_387)" stroke-width="15.4515"/>
<path opacity="0.8" d="M884.513 -1031.01C944.92 -1025.32 1005.99 -1031.49 1065.81 -1037.53C1086.87 -1039.66 1107.77 -1041.78 1128.44 -1043.35C1208.04 -1049.41 1284.42 -1047.55 1354.52 -1008.84C1446.38 -958.115 1543.23 -895.947 1617.33 -821.109C1691.42 -746.28 1742.56 -658.988 1743.49 -557.948C1744.42 -456.661 1696.35 -365.77 1624.41 -288.21C1552.47 -210.646 1456.81 -146.59 1363.01 -99.0735C1290.4 -62.2825 1212.75 -73.1136 1131.93 -91.0861C1119.43 -93.8659 1106.84 -96.8198 1094.2 -99.788C1025.42 -115.93 954.746 -132.519 884.443 -124.212C829.404 -117.707 773.841 -96.084 719.013 -69.6336C691.58 -56.4031 664.281 -41.9355 637.288 -27.5178C634.572 -26.0639 631.856 -24.6136 629.144 -23.1633C604.911 -10.2065 580.945 2.60812 557.303 14.3919C504.689 40.6147 453.999 61.5625 406.199 67.4739C358.552 73.364 313.802 64.3209 272.778 30.4839C232.733 -2.54616 217.474 -42.5611 217.204 -87.4105C216.933 -132.422 231.766 -182.291 252.06 -234.745C262.01 -260.462 273.242 -286.727 284.603 -313.293L285.248 -314.803C296.821 -341.867 308.504 -369.235 319.031 -396.556C340.076 -451.169 356.599 -505.816 358.438 -557.879C360.146 -606.227 349.021 -656.813 333.779 -707.382C326.155 -732.678 317.484 -758.019 308.849 -783.101C308.378 -784.469 307.908 -785.835 307.438 -787.201C299.275 -810.904 291.198 -834.359 284.091 -857.386C253.947 -955.044 241.774 -1043.46 313.22 -1107.69C385.2 -1172.4 477.131 -1158.69 577.194 -1125.59C606.23 -1115.99 635.695 -1104.85 665.448 -1093.6C687.02 -1085.45 708.748 -1077.23 730.575 -1069.5C782.306 -1051.18 834.226 -1035.75 884.513 -1031.01Z" stroke="url(#paint1_linear_317_387)" stroke-width="15.4515"/>
<path opacity="0.8" d="M1396.3 -352.655C1546.09 -337.017 1683.3 -263.778 1776.7 -150.037C1799.78 -121.933 1811.57 -97.4774 1816.34 -74.4253C1821.12 -51.3626 1818.92 -29.48 1813.67 -6.40657C1810.69 6.7102 1806.69 20.2571 1802.45 34.6073C1791.84 70.5202 1779.75 111.474 1778.36 163.34C1777.27 203.981 1784.38 252.84 1793.28 304.294C1795.53 317.265 1797.89 330.403 1800.26 343.623C1807.33 382.948 1814.52 423.009 1819.24 461.645C1825.54 513.28 1827.35 562.047 1818.56 602.709C1809.79 643.293 1790.53 675.551 1754.8 694.672C1683.14 733.027 1609.6 707.867 1532.29 669.676C1516.41 661.83 1500.31 653.406 1484.06 644.899C1461.05 632.856 1437.74 620.657 1414.34 609.729C1374.25 591.021 1333.24 575.732 1291.3 570.632C1250.83 565.712 1207.38 571.837 1163.66 581.701C1141.79 586.635 1119.8 592.521 1098.03 598.454C1094.94 599.296 1091.86 600.143 1088.77 600.985C1070.15 606.075 1051.75 611.109 1033.71 615.538C991.612 625.871 951.893 632.813 916.856 629.525C881.982 626.252 851.785 612.847 828.476 582.351C804.876 551.479 800.083 519.21 806.657 485.589C813.26 451.831 831.318 416.739 853.481 380.474C863.384 364.268 874.067 347.888 884.875 331.32C886.15 329.365 887.424 327.41 888.699 325.451C900.793 306.896 912.935 288.116 924.139 269.18C946.535 231.337 965.314 192.687 972.56 153.639C978.782 120.097 976.846 85.4712 971.902 50.8913C968.82 29.3392 964.538 7.63084 960.307 -13.8003C957.772 -26.654 955.252 -39.4082 953.027 -51.974C941.074 -119.411 937.297 -182.257 980.401 -233.61C1074.5 -345.717 1246.13 -368.332 1396.3 -352.655Z" stroke="url(#paint2_linear_317_387)" stroke-width="15.4515"/>
<path opacity="0.8" d="M375.885 629.458C525.677 645.099 662.884 718.336 756.289 832.078C779.368 860.181 791.156 884.634 795.93 907.69C800.708 930.749 798.513 952.635 793.262 975.709C790.276 988.825 786.275 1002.37 782.036 1016.72C771.431 1052.64 759.334 1093.59 757.944 1145.46C756.854 1186.1 763.964 1234.95 772.872 1286.41C775.115 1299.38 777.477 1312.52 779.852 1325.74C786.914 1365.06 794.112 1405.12 798.823 1443.76C805.123 1495.39 806.938 1544.16 798.151 1584.82C789.382 1625.41 770.116 1657.66 734.392 1676.79C662.732 1715.14 589.185 1689.98 511.876 1651.79C495.994 1643.95 479.895 1635.52 463.651 1627.01C440.638 1614.97 417.333 1602.77 393.924 1591.84C353.836 1573.14 312.824 1557.84 270.886 1552.75C230.423 1547.82 186.966 1553.95 143.251 1563.82C121.378 1568.75 99.3821 1574.64 77.6231 1580.57C74.5307 1581.41 71.4434 1582.26 68.3621 1583.1C49.7413 1588.19 31.3329 1593.22 13.2936 1597.65C-28.7991 1607.99 -68.52 1614.93 -103.554 1611.64C-138.429 1608.37 -168.627 1594.96 -191.937 1564.47C-215.536 1533.59 -220.327 1501.32 -213.753 1467.7C-207.152 1433.95 -189.092 1398.85 -166.93 1362.59C-157.028 1346.38 -146.343 1330 -135.537 1313.44C-134.263 1311.48 -132.987 1309.52 -131.711 1307.57C-119.619 1289.01 -107.477 1270.23 -96.2721 1251.3C-73.8756 1213.45 -55.0975 1174.8 -47.8528 1135.75C-41.6295 1102.21 -43.5632 1067.58 -48.508 1033.01C-51.5901 1011.45 -55.8742 989.746 -60.1044 968.311C-62.641 955.461 -65.1581 942.707 -67.3852 930.141C-79.3392 862.702 -83.1131 799.859 -40.0089 748.504C54.0908 636.397 225.717 613.782 375.885 629.458Z" stroke="url(#paint3_linear_317_387)" stroke-width="15.4515"/>
</g>
</g>
<rect width="1512" height="982" fill="#1F2028" fill-opacity="0.79"/>
<defs>
<linearGradient id="paint0_linear_317_387" x1="-90.9586" y1="-86.0741" x2="1096.44" y2="-356.085" gradientUnits="userSpaceOnUse">
<stop stop-color="#6EB9FC"/>
<stop offset="0.479167" stop-color="#F888D2"/>
<stop offset="1" stop-color="#FD957D"/>
</linearGradient>
<linearGradient id="paint1_linear_317_387" x1="246.115" y1="-1156.08" x2="1842.31" y2="-1056.8" gradientUnits="userSpaceOnUse">
<stop stop-color="#6EB9FC"/>
<stop offset="0.479167" stop-color="#F888D2"/>
<stop offset="1" stop-color="#FD957D"/>
</linearGradient>
<linearGradient id="paint2_linear_317_387" x1="926.024" y1="-404.932" x2="1983.3" y2="-231.564" gradientUnits="userSpaceOnUse">
<stop stop-color="#6EB9FC"/>
<stop offset="0.479167" stop-color="#F888D2"/>
<stop offset="1" stop-color="#FD957D"/>
</linearGradient>
<linearGradient id="paint3_linear_317_387" x1="-94.3876" y1="577.183" x2="962.891" y2="750.549" gradientUnits="userSpaceOnUse">
<stop stop-color="#6EB9FC"/>
<stop offset="0.479167" stop-color="#F888D2"/>
<stop offset="1" stop-color="#FD957D"/>
</linearGradient>
</defs>
</svg>
