<svg width="1512" height="273" viewBox="0 0 1512 273" fill="none" xmlns="http://www.w3.org/2000/svg">
<mask id="mask0_235_3080" style="mask-type:alpha" maskUnits="userSpaceOnUse" x="0" y="0" width="1512" height="273">
<rect width="1512" height="273" fill="#D9D9D9"/>
</mask>
<g mask="url(#mask0_235_3080)">
<mask id="mask1_235_3080" style="mask-type:luminance" maskUnits="userSpaceOnUse" x="-104" y="-286" width="1674" height="1141">
<path d="M1570 -285.104H-104V854.203H1570V-285.104Z" fill="white"/>
</mask>
<g mask="url(#mask1_235_3080)">
<path d="M1690.55 -283.327H-104.934V873.615H1690.55V-283.327Z" fill="url(#paint0_linear_235_3080)"/>
<path opacity="0.8" d="M420.995 -11.555C560.301 -11.0788 681.02 25.1743 807.138 66.7132C840.97 77.8532 877.56 87.6719 914.191 97.4989C916.447 98.1053 918.698 98.7089 920.954 99.3152C959.882 109.768 998.683 120.329 1034.38 132.649C1105.8 157.293 1164.19 188.763 1186.04 239.862C1207.96 291.142 1179.19 337.646 1136.15 384.097C1121.61 399.796 1105.53 415.391 1089.3 431.135C1081.51 438.695 1073.68 446.288 1065.97 453.943C1042.27 477.477 1019.78 501.501 1003.38 526.515C983.108 557.429 968.971 590.988 956.453 624.855C952.334 636.001 948.398 647.166 944.474 658.283C936.452 681.022 928.503 703.564 919.226 725.321C891.623 790.063 852.65 846.914 767.005 878.768C671.232 914.382 553.632 932.554 440.191 929.01C326.755 925.466 217.74 900.221 138.873 849.22C63.6603 800.582 63.7703 733.131 76.5108 659.652C78.842 646.209 81.5994 632.546 84.3777 618.778C89.1565 595.099 93.9983 571.108 96.8395 547.399C101.342 509.826 100.888 472.593 87.2487 437.568C73.5785 402.46 44.6522 369.31 10.6765 337.418C-9.81604 318.183 -32.314 299.261 -54.4737 280.622C-68.9601 268.439 -83.3019 256.376 -96.8441 244.429C-165.83 183.559 -214.643 125.172 -167.851 62.4019C-121.484 0.201923 -27.3007 -18.6867 82.4756 -21.728C137.303 -23.247 195.736 -20.8029 253.612 -17.9235C261.627 -17.5246 269.633 -17.1174 277.616 -16.7113C327.213 -14.1888 375.966 -11.7091 420.995 -11.555Z" stroke="#252833" stroke-width="5"/>
<path opacity="0.8" d="M874.298 -720.959C941.111 -716.503 1008.66 -721.334 1074.81 -726.066C1098.11 -727.732 1121.23 -729.384 1144.09 -730.616C1232.13 -735.361 1316.61 -733.904 1394.14 -703.61C1495.74 -663.918 1602.86 -615.275 1684.82 -556.713C1766.76 -498.16 1823.32 -429.855 1824.35 -350.793C1825.38 -271.536 1772.21 -200.415 1692.64 -139.725C1613.08 -79.0313 1507.27 -28.9086 1403.54 8.2737C1323.22 37.0595 1237.34 28.5871 1147.95 14.5238C1134.12 12.3487 1120.2 10.0372 1106.21 7.71462C1030.15 -4.91897 951.978 -17.8986 874.221 -11.3979C813.346 -6.3097 751.891 10.613 691.25 31.3073C660.909 41.6629 630.715 52.9808 600.86 64.2654C597.856 65.403 594.852 66.5379 591.852 67.6727C565.05 77.8113 538.543 87.8387 512.395 97.0594C454.201 117.579 398.137 133.97 345.269 138.593C292.57 143.204 243.075 136.128 197.701 109.651C153.41 83.8055 136.533 52.4941 136.234 17.3998C135.935 -17.8221 152.341 -56.8438 174.787 -97.889C185.791 -118.012 198.214 -138.564 210.779 -159.352L211.493 -160.533C224.293 -181.711 237.214 -203.127 248.858 -224.505C272.135 -267.239 290.409 -309.999 292.444 -350.739C294.333 -388.57 282.028 -428.154 265.17 -467.723C256.737 -487.517 247.147 -507.346 237.597 -526.972C237.076 -528.042 236.556 -529.112 236.035 -530.181C227.007 -548.728 218.074 -567.08 210.213 -585.099C176.873 -661.515 163.41 -730.699 242.431 -780.961C322.043 -831.596 423.721 -820.867 534.395 -794.969C566.509 -787.456 599.098 -778.739 632.006 -769.935C655.866 -763.555 679.897 -757.127 704.038 -751.08C761.259 -736.746 818.68 -724.666 874.298 -720.959Z" stroke="#252833" stroke-width="5"/>
<path opacity="0.8" d="M1440.35 -190.153C1606.02 -177.917 1757.78 -120.608 1861.09 -31.6062C1886.61 -9.61562 1899.65 9.51948 1904.93 27.5603C1910.21 45.6039 1907.79 62.7296 1901.98 80.7816C1898.68 91.0453 1894.25 101.646 1889.56 112.875C1877.83 140.979 1864.45 173.025 1862.92 213.61C1861.71 245.41 1869.57 283.642 1879.42 323.902C1881.91 334.054 1884.52 344.335 1887.15 354.679C1894.96 385.448 1902.92 416.798 1908.13 447.031C1915.1 487.432 1917.1 525.594 1907.39 557.409C1897.69 589.168 1876.38 614.407 1836.87 629.369C1757.61 659.384 1676.26 639.697 1590.76 609.812C1573.19 603.674 1555.39 597.079 1537.42 590.425C1511.97 580.999 1486.19 571.453 1460.3 562.905C1415.96 548.266 1370.6 536.3 1324.21 532.311C1279.46 528.459 1231.4 533.254 1183.05 540.97C1158.85 544.834 1134.53 549.437 1110.46 554.082C1107.04 554.741 1103.63 555.401 1100.22 556.06C1079.62 560.046 1059.26 563.984 1039.31 567.45C992.753 575.536 948.823 580.968 910.071 578.395C871.499 575.834 838.101 565.344 812.32 541.482C786.217 517.322 780.917 492.074 788.187 465.767C795.491 439.351 815.463 411.889 839.977 383.512C850.929 370.834 862.745 358.014 874.699 345.049C876.109 343.522 877.519 341.993 878.929 340.46C892.305 325.941 905.735 311.243 918.126 296.429C942.897 266.814 963.667 236.574 971.681 206.019C978.563 179.77 976.422 152.675 970.954 125.619C967.545 108.752 962.808 91.7685 958.129 74.996C955.325 64.9409 952.538 54.9581 950.078 45.1283C936.857 -7.64187 932.68 -56.818 980.354 -97.0013C1084.43 -184.725 1274.26 -202.42 1440.35 -190.153Z" stroke="#252833" stroke-width="5"/>
</g>
</g>
<defs>
<linearGradient id="paint0_linear_235_3080" x1="-67.7002" y1="-283.328" x2="1578.32" y2="851.129" gradientUnits="userSpaceOnUse">
<stop stop-color="#6EB9FC"/>
<stop offset="0.239583" stop-color="#BA98FD"/>
<stop offset="0.479167" stop-color="#F888D2"/>
<stop offset="0.708333" stop-color="#FD8F9C"/>
<stop offset="1" stop-color="#FE9860"/>
</linearGradient>
</defs>
</svg>
